REM DIRINDEX 1\2,1\3
REM DIRNAME cjc143,folder01,folder02
TITLE ""
FILE "2000 phrasesTrack21.mp3" MP3
  TRACK 01 AUDIO
    TITLE "2:cjc143_0823"
    INDEX 01 00:00:00
  TRACK 02 AUDIO
    TITLE "0:"
    INDEX 01 00:00:62
  TRACK 03 AUDIO
    TITLE "2:cjc143_0824"
    INDEX 01 00:01:28
  TRACK 04 AUDIO
    TITLE "0:"
    INDEX 01 00:03:17
  TRACK 05 AUDIO
    TITLE "2:cjc143_0825"
    INDEX 01 00:03:61
  TRACK 06 AUDIO
    TITLE "0:"
    INDEX 01 00:05:28
  TRACK 07 AUDIO
    TITLE "2:cjc143_0826"
    INDEX 01 00:05:71
  TRACK 08 AUDIO
    TITLE "0:"
    INDEX 01 00:07:74
  TRACK 09 AUDIO
    TITLE "2:cjc143_0827"
    INDEX 01 00:08:42
  TRACK 10 AUDIO
    TITLE "0:"
    INDEX 01 00:10:49
  TRACK 11 AUDIO
    TITLE "2:cjc143_0828"
    INDEX 01 00:11:21
  TRACK 12 AUDIO
    TITLE "0:"
    INDEX 01 00:13:08
  TRACK 13 AUDIO
    TITLE "2:cjc143_0829"
    INDEX 01 00:13:55
  TRACK 14 AUDIO
    TITLE "0:"
    INDEX 01 00:15:42
  TRACK 15 AUDIO
    TITLE "2:cjc143_0830"
    INDEX 01 00:16:10
  TRACK 16 AUDIO
    TITLE "0:"
    INDEX 01 00:18:41
  TRACK 17 AUDIO
    TITLE "2:cjc143_0831"
    INDEX 01 00:19:09
  TRACK 18 AUDIO
    TITLE "0:"
    INDEX 01 00:21:15
  TRACK 19 AUDIO
    TITLE "2:cjc143_0832"
    INDEX 01 00:21:58
  TRACK 20 AUDIO
    TITLE "0:"
    INDEX 01 00:23:22
  TRACK 21 AUDIO
    TITLE "2:cjc143_0833"
    INDEX 01 00:23:71
  TRACK 22 AUDIO
    TITLE "0:"
    INDEX 01 00:25:56
  TRACK 23 AUDIO
    TITLE "2:cjc143_0834"
    INDEX 01 00:26:28
  TRACK 24 AUDIO
    TITLE "0:"
    INDEX 01 00:27:67
  TRACK 25 AUDIO
    TITLE "2:cjc143_0835"
    INDEX 01 00:28:35
  TRACK 26 AUDIO
    TITLE "0:"
    INDEX 01 00:29:44
  TRACK 27 AUDIO
    TITLE "2:cjc143_0836"
    INDEX 01 00:30:14
  TRACK 28 AUDIO
    TITLE "0:"
    INDEX 01 00:31:65
  TRACK 29 AUDIO
    TITLE "2:cjc143_0837"
    INDEX 01 00:32:35
  TRACK 30 AUDIO
    TITLE "0:"
    INDEX 01 00:33:68
  TRACK 31 AUDIO
    TITLE "2:cjc143_0838"
    INDEX 01 00:34:36
  TRACK 32 AUDIO
    TITLE "0:"
    INDEX 01 00:36:01
  TRACK 33 AUDIO
    TITLE "2:cjc143_0839"
    INDEX 01 00:36:46
  TRACK 34 AUDIO
    TITLE "0:"
    INDEX 01 00:37:57
  TRACK 35 AUDIO
    TITLE "2:cjc143_0840"
    INDEX 01 00:38:31
  TRACK 36 AUDIO
    TITLE "0:"
    INDEX 01 00:39:43
  TRACK 37 AUDIO
    TITLE "2:cjc143_0841"
    INDEX 01 00:40:19
  TRACK 38 AUDIO
    TITLE "0:"
    INDEX 01 00:41:40
  TRACK 39 AUDIO
    TITLE "2:cjc143_0842"
    INDEX 01 00:42:08
  TRACK 40 AUDIO
    TITLE "0:"
    INDEX 01 00:43:74
  TRACK 41 AUDIO
    TITLE "2:cjc143_0843"
    INDEX 01 00:44:44
  TRACK 42 AUDIO
    TITLE "0:"
    INDEX 01 00:46:35
  TRACK 43 AUDIO
    TITLE "2:cjc143_0844"
    INDEX 01 00:47:07
  TRACK 44 AUDIO
    TITLE "0:"
    INDEX 01 00:48:18
  TRACK 45 AUDIO
    TITLE "2:cjc143_0845"
    INDEX 01 00:48:65
  TRACK 46 AUDIO
    TITLE "0:"
    INDEX 01 00:50:17
  TRACK 47 AUDIO
    TITLE "2:cjc143_0846"
    INDEX 01 00:50:64
  TRACK 48 AUDIO
    TITLE "0:"
    INDEX 01 00:52:06
  TRACK 49 AUDIO
    TITLE "2:cjc143_0847"
    INDEX 01 00:52:57
  TRACK 50 AUDIO
    TITLE "0:"
    INDEX 01 00:54:09
  TRACK 51 AUDIO
    TITLE "2:cjc143_0848"
    INDEX 01 00:54:62
  TRACK 52 AUDIO
    TITLE "0:"
    INDEX 01 00:56:55
  TRACK 53 AUDIO
    TITLE "2:cjc143_0849"
    INDEX 01 00:57:23
  TRACK 54 AUDIO
    TITLE "0:"
    INDEX 01 00:58:36
  TRACK 55 AUDIO
    TITLE "2:cjc143_0850"
    INDEX 01 00:59:04
  TRACK 56 AUDIO
    TITLE "0:"
    INDEX 01 01:01:07
  TRACK 57 AUDIO
    TITLE "2:cjc143_0851"
    INDEX 01 01:01:50
  TRACK 58 AUDIO
    TITLE "0:"
    INDEX 01 01:03:33
  TRACK 59 AUDIO
    TITLE "2:cjc143_0852"
    INDEX 01 01:04:03
  TRACK 60 AUDIO
    TITLE "0:"
    INDEX 01 01:05:30
  TRACK 61 AUDIO
    TITLE "2:cjc143_0853"
    INDEX 01 01:05:66
  TRACK 62 AUDIO
    TITLE "0:"
    INDEX 01 01:07:39
  TRACK 63 AUDIO
    TITLE "2:cjc143_0854"
    INDEX 01 01:08:13
  TRACK 64 AUDIO
    TITLE "0:"
    INDEX 01 01:09:71
  TRACK 65 AUDIO
    TITLE "2:cjc143_0855"
    INDEX 01 01:10:49
  TRACK 66 AUDIO
    TITLE "0:"
    INDEX 01 01:12:48
  TRACK 67 AUDIO
    TITLE "2:cjc143_0856"
    INDEX 01 01:13:24
  TRACK 68 AUDIO
    TITLE "0:"
    INDEX 01 01:15:40
  TRACK 69 AUDIO
    TITLE "2:cjc143_0857"
    INDEX 01 01:16:09
  TRACK 70 AUDIO
    TITLE "0:"
    INDEX 01 01:18:04
